<svg xmlns="http://www.w3.org/2000/svg" xmlns:xlink="http://www.w3.org/1999/xlink" width="165" zoomAndPan="magnify" viewBox="0 0 123.75 31.5" height="42" preserveAspectRatio="xMidYMid meet" version="1.0"><defs><g/></defs><g fill="#ff00ff" fill-opacity="1"><g transform="translate(2.672149, 18.457031)"><g><path d="M 10.1875 0 L 7.453125 0 C 7.328125 -0.175781 7.238281 -0.394531 7.1875 -0.65625 C 7.144531 -0.863281 7.078125 -1.066406 6.984375 -1.265625 C 6.890625 -1.472656 6.734375 -1.640625 6.515625 -1.765625 C 6.296875 -1.898438 5.972656 -1.972656 5.546875 -1.984375 L 3.65625 -1.984375 L 3.65625 0 L 0.765625 0 L 0.765625 -6.890625 L 5.46875 -6.890625 C 6.59375 -6.890625 7.5 -6.804688 8.1875 -6.640625 C 8.882812 -6.472656 9.390625 -6.207031 9.703125 -5.84375 C 10.023438 -5.488281 10.1875 -5.019531 10.1875 -4.4375 C 10.1875 -3.957031 10.078125 -3.550781 9.859375 -3.21875 C 9.640625 -2.882812 9.289062 -2.625 8.8125 -2.4375 C 9.269531 -2.25 9.566406 -2.019531 9.703125 -1.75 C 9.835938 -1.488281 9.921875 -1.203125 9.953125 -0.890625 C 9.984375 -0.609375 10.0625 -0.3125 10.1875 0 Z M 3.65625 -3.6875 L 5.3125 -3.703125 C 5.78125 -3.703125 6.144531 -3.722656 6.40625 -3.765625 C 6.675781 -3.804688 6.875 -3.859375 7 -3.921875 C 7.125 -3.992188 7.203125 -4.070312 7.234375 -4.15625 C 7.273438 -4.25 7.296875 -4.34375 7.296875 -4.4375 C 7.296875 -4.53125 7.273438 -4.617188 7.234375 -4.703125 C 7.203125 -4.796875 7.125 -4.878906 7 -4.953125 C 6.875 -5.023438 6.675781 -5.082031 6.40625 -5.125 C 6.144531 -5.164062 5.78125 -5.1875 5.3125 -5.1875 L 3.65625 -5.1875 Z M 3.65625 -3.6875 "/></g></g></g><g fill="#ff00ff" fill-opacity="1"><g transform="translate(13.23756, 18.457031)"><g><path d="M 5.21875 0.15625 C 3.507812 0.15625 2.253906 -0.195312 1.453125 -0.90625 C 0.742188 -1.53125 0.390625 -2.378906 0.390625 -3.453125 C 0.390625 -4.515625 0.742188 -5.359375 1.453125 -5.984375 C 2.253906 -6.679688 3.507812 -7.03125 5.21875 -7.03125 C 6.914062 -7.03125 8.171875 -6.679688 8.984375 -5.984375 C 9.691406 -5.359375 10.046875 -4.515625 10.046875 -3.453125 C 10.046875 -2.378906 9.691406 -1.53125 8.984375 -0.90625 C 8.171875 -0.195312 6.914062 0.15625 5.21875 0.15625 Z M 5.21875 -1.703125 C 5.914062 -1.703125 6.425781 -1.898438 6.75 -2.296875 C 7.007812 -2.617188 7.140625 -3.003906 7.140625 -3.453125 C 7.140625 -3.890625 7.007812 -4.265625 6.75 -4.578125 C 6.425781 -4.984375 5.914062 -5.1875 5.21875 -5.1875 C 4.519531 -5.1875 4.003906 -4.984375 3.671875 -4.578125 C 3.410156 -4.265625 3.28125 -3.890625 3.28125 -3.453125 C 3.28125 -3.003906 3.410156 -2.617188 3.671875 -2.296875 C 4.003906 -1.898438 4.519531 -1.703125 5.21875 -1.703125 Z M 5.21875 -1.703125 "/></g></g></g><g fill="#ff00ff" fill-opacity="1"><g transform="translate(23.66363, 18.457031)"><g><path d="M 10.1875 0 L 7.296875 0 L 7.296875 -2.78125 L 3.65625 -2.78125 L 3.65625 0 L 0.765625 0 L 0.765625 -6.890625 L 3.65625 -6.890625 L 3.65625 -4.109375 L 7.296875 -4.109375 L 7.296875 -6.890625 L 10.1875 -6.890625 Z M 10.1875 0 "/></g></g></g><g fill="#ff00ff" fill-opacity="1"><g transform="translate(34.618212, 18.457031)"><g><path d="M 13.875 0 L 10.984375 0 L 10.984375 -4.390625 L 8.40625 0 L 6.25 0 L 3.65625 -4.390625 L 3.65625 0 L 0.765625 0 L 0.765625 -6.890625 L 4.203125 -6.890625 L 7.328125 -1.96875 L 10.4375 -6.890625 L 13.875 -6.890625 Z M 13.875 0 "/></g></g></g><g fill="#ff00ff" fill-opacity="1"><g transform="translate(49.262757, 18.457031)"><g><path d="M 11.578125 0 L 8.65625 0 L 8 -1.125 L 3.65625 -1.125 L 3 0 L 0.078125 0 L 4.484375 -6.890625 L 7.171875 -6.890625 Z M 7.03125 -2.828125 L 5.828125 -4.921875 L 4.625 -2.828125 Z M 7.03125 -2.828125 "/></g></g></g><g fill="#ff00ff" fill-opacity="1"><g transform="translate(60.914017, 18.457031)"><g><path d="M 5.890625 0 L 2.984375 0 L 2.984375 -5.1875 L 0.28125 -5.1875 L 0.28125 -6.890625 L 8.578125 -6.890625 L 8.578125 -5.1875 L 5.890625 -5.1875 Z M 5.890625 0 "/></g></g></g><g fill="#00ffff" fill-opacity="1"><g transform="translate(2.303009, 18.457031)"><g><path d="M 10.1875 0 L 7.453125 0 C 7.328125 -0.175781 7.238281 -0.394531 7.1875 -0.65625 C 7.144531 -0.863281 7.078125 -1.066406 6.984375 -1.265625 C 6.890625 -1.472656 6.734375 -1.640625 6.515625 -1.765625 C 6.296875 -1.898438 5.972656 -1.972656 5.546875 -1.984375 L 3.65625 -1.984375 L 3.65625 0 L 0.765625 0 L 0.765625 -6.890625 L 5.46875 -6.890625 C 6.59375 -6.890625 7.5 -6.804688 8.1875 -6.640625 C 8.882812 -6.472656 9.390625 -6.207031 9.703125 -5.84375 C 10.023438 -5.488281 10.1875 -5.019531 10.1875 -4.4375 C 10.1875 -3.957031 10.078125 -3.550781 9.859375 -3.21875 C 9.640625 -2.882812 9.289062 -2.625 8.8125 -2.4375 C 9.269531 -2.25 9.566406 -2.019531 9.703125 -1.75 C 9.835938 -1.488281 9.921875 -1.203125 9.953125 -0.890625 C 9.984375 -0.609375 10.0625 -0.3125 10.1875 0 Z M 3.65625 -3.6875 L 5.3125 -3.703125 C 5.78125 -3.703125 6.144531 -3.722656 6.40625 -3.765625 C 6.675781 -3.804688 6.875 -3.859375 7 -3.921875 C 7.125 -3.992188 7.203125 -4.070312 7.234375 -4.15625 C 7.273438 -4.25 7.296875 -4.34375 7.296875 -4.4375 C 7.296875 -4.53125 7.273438 -4.617188 7.234375 -4.703125 C 7.203125 -4.796875 7.125 -4.878906 7 -4.953125 C 6.875 -5.023438 6.675781 -5.082031 6.40625 -5.125 C 6.144531 -5.164062 5.78125 -5.1875 5.3125 -5.1875 L 3.65625 -5.1875 Z M 3.65625 -3.6875 "/></g></g></g><g fill="#00ffff" fill-opacity="1"><g transform="translate(12.86842, 18.457031)"><g><path d="M 5.21875 0.15625 C 3.507812 0.15625 2.253906 -0.195312 1.453125 -0.90625 C 0.742188 -1.53125 0.390625 -2.378906 0.390625 -3.453125 C 0.390625 -4.515625 0.742188 -5.359375 1.453125 -5.984375 C 2.253906 -6.679688 3.507812 -7.03125 5.21875 -7.03125 C 6.914062 -7.03125 8.171875 -6.679688 8.984375 -5.984375 C 9.691406 -5.359375 10.046875 -4.515625 10.046875 -3.453125 C 10.046875 -2.378906 9.691406 -1.53125 8.984375 -0.90625 C 8.171875 -0.195312 6.914062 0.15625 5.21875 0.15625 Z M 5.21875 -1.703125 C 5.914062 -1.703125 6.425781 -1.898438 6.75 -2.296875 C 7.007812 -2.617188 7.140625 -3.003906 7.140625 -3.453125 C 7.140625 -3.890625 7.007812 -4.265625 6.75 -4.578125 C 6.425781 -4.984375 5.914062 -5.1875 5.21875 -5.1875 C 4.519531 -5.1875 4.003906 -4.984375 3.671875 -4.578125 C 3.410156 -4.265625 3.28125 -3.890625 3.28125 -3.453125 C 3.28125 -3.003906 3.410156 -2.617188 3.671875 -2.296875 C 4.003906 -1.898438 4.519531 -1.703125 5.21875 -1.703125 Z M 5.21875 -1.703125 "/></g></g></g><g fill="#00ffff" fill-opacity="1"><g transform="translate(23.294491, 18.457031)"><g><path d="M 10.1875 0 L 7.296875 0 L 7.296875 -2.78125 L 3.65625 -2.78125 L 3.65625 0 L 0.765625 0 L 0.765625 -6.890625 L 3.65625 -6.890625 L 3.65625 -4.109375 L 7.296875 -4.109375 L 7.296875 -6.890625 L 10.1875 -6.890625 Z M 10.1875 0 "/></g></g></g><g fill="#00ffff" fill-opacity="1"><g transform="translate(34.249072, 18.457031)"><g><path d="M 13.875 0 L 10.984375 0 L 10.984375 -4.390625 L 8.40625 0 L 6.25 0 L 3.65625 -4.390625 L 3.65625 0 L 0.765625 0 L 0.765625 -6.890625 L 4.203125 -6.890625 L 7.328125 -1.96875 L 10.4375 -6.890625 L 13.875 -6.890625 Z M 13.875 0 "/></g></g></g><g fill="#00ffff" fill-opacity="1"><g transform="translate(48.893617, 18.457031)"><g><path d="M 11.578125 0 L 8.65625 0 L 8 -1.125 L 3.65625 -1.125 L 3 0 L 0.078125 0 L 4.484375 -6.890625 L 7.171875 -6.890625 Z M 7.03125 -2.828125 L 5.828125 -4.921875 L 4.625 -2.828125 Z M 7.03125 -2.828125 "/></g></g></g><g fill="#00ffff" fill-opacity="1"><g transform="translate(60.544877, 18.457031)"><g><path d="M 5.890625 0 L 2.984375 0 L 2.984375 -5.1875 L 0.28125 -5.1875 L 0.28125 -6.890625 L 8.578125 -6.890625 L 8.578125 -5.1875 L 5.890625 -5.1875 Z M 5.890625 0 "/></g></g></g><g fill="#ffffff" fill-opacity="1"><g transform="translate(2.487579, 18.457031)"><g><path d="M 10.1875 0 L 7.453125 0 C 7.328125 -0.175781 7.238281 -0.394531 7.1875 -0.65625 C 7.144531 -0.863281 7.078125 -1.066406 6.984375 -1.265625 C 6.890625 -1.472656 6.734375 -1.640625 6.515625 -1.765625 C 6.296875 -1.898438 5.972656 -1.972656 5.546875 -1.984375 L 3.65625 -1.984375 L 3.65625 0 L 0.765625 0 L 0.765625 -6.890625 L 5.46875 -6.890625 C 6.59375 -6.890625 7.5 -6.804688 8.1875 -6.640625 C 8.882812 -6.472656 9.390625 -6.207031 9.703125 -5.84375 C 10.023438 -5.488281 10.1875 -5.019531 10.1875 -4.4375 C 10.1875 -3.957031 10.078125 -3.550781 9.859375 -3.21875 C 9.640625 -2.882812 9.289062 -2.625 8.8125 -2.4375 C 9.269531 -2.25 9.566406 -2.019531 9.703125 -1.75 C 9.835938 -1.488281 9.921875 -1.203125 9.953125 -0.890625 C 9.984375 -0.609375 10.0625 -0.3125 10.1875 0 Z M 3.65625 -3.6875 L 5.3125 -3.703125 C 5.78125 -3.703125 6.144531 -3.722656 6.40625 -3.765625 C 6.675781 -3.804688 6.875 -3.859375 7 -3.921875 C 7.125 -3.992188 7.203125 -4.070312 7.234375 -4.15625 C 7.273438 -4.25 7.296875 -4.34375 7.296875 -4.4375 C 7.296875 -4.53125 7.273438 -4.617188 7.234375 -4.703125 C 7.203125 -4.796875 7.125 -4.878906 7 -4.953125 C 6.875 -5.023438 6.675781 -5.082031 6.40625 -5.125 C 6.144531 -5.164062 5.78125 -5.1875 5.3125 -5.1875 L 3.65625 -5.1875 Z M 3.65625 -3.6875 "/></g></g></g><g fill="#ffffff" fill-opacity="1"><g transform="translate(13.05299, 18.457031)"><g><path d="M 5.21875 0.15625 C 3.507812 0.15625 2.253906 -0.195312 1.453125 -0.90625 C 0.742188 -1.53125 0.390625 -2.378906 0.390625 -3.453125 C 0.390625 -4.515625 0.742188 -5.359375 1.453125 -5.984375 C 2.253906 -6.679688 3.507812 -7.03125 5.21875 -7.03125 C 6.914062 -7.03125 8.171875 -6.679688 8.984375 -5.984375 C 9.691406 -5.359375 10.046875 -4.515625 10.046875 -3.453125 C 10.046875 -2.378906 9.691406 -1.53125 8.984375 -0.90625 C 8.171875 -0.195312 6.914062 0.15625 5.21875 0.15625 Z M 5.21875 -1.703125 C 5.914062 -1.703125 6.425781 -1.898438 6.75 -2.296875 C 7.007812 -2.617188 7.140625 -3.003906 7.140625 -3.453125 C 7.140625 -3.890625 7.007812 -4.265625 6.75 -4.578125 C 6.425781 -4.984375 5.914062 -5.1875 5.21875 -5.1875 C 4.519531 -5.1875 4.003906 -4.984375 3.671875 -4.578125 C 3.410156 -4.265625 3.28125 -3.890625 3.28125 -3.453125 C 3.28125 -3.003906 3.410156 -2.617188 3.671875 -2.296875 C 4.003906 -1.898438 4.519531 -1.703125 5.21875 -1.703125 Z M 5.21875 -1.703125 "/></g></g></g><g fill="#ffffff" fill-opacity="1"><g transform="translate(23.479061, 18.457031)"><g><path d="M 10.1875 0 L 7.296875 0 L 7.296875 -2.78125 L 3.65625 -2.78125 L 3.65625 0 L 0.765625 0 L 0.765625 -6.890625 L 3.65625 -6.890625 L 3.65625 -4.109375 L 7.296875 -4.109375 L 7.296875 -6.890625 L 10.1875 -6.890625 Z M 10.1875 0 "/></g></g></g><g fill="#ffffff" fill-opacity="1"><g transform="translate(34.433642, 18.457031)"><g><path d="M 13.875 0 L 10.984375 0 L 10.984375 -4.390625 L 8.40625 0 L 6.25 0 L 3.65625 -4.390625 L 3.65625 0 L 0.765625 0 L 0.765625 -6.890625 L 4.203125 -6.890625 L 7.328125 -1.96875 L 10.4375 -6.890625 L 13.875 -6.890625 Z M 13.875 0 "/></g></g></g><g fill="#ffffff" fill-opacity="1"><g transform="translate(49.078187, 18.457031)"><g><path d="M 11.578125 0 L 8.65625 0 L 8 -1.125 L 3.65625 -1.125 L 3 0 L 0.078125 0 L 4.484375 -6.890625 L 7.171875 -6.890625 Z M 7.03125 -2.828125 L 5.828125 -4.921875 L 4.625 -2.828125 Z M 7.03125 -2.828125 "/></g></g></g><g fill="#ffffff" fill-opacity="1"><g transform="translate(60.729447, 18.457031)"><g><path d="M 5.890625 0 L 2.984375 0 L 2.984375 -5.1875 L 0.28125 -5.1875 L 0.28125 -6.890625 L 8.578125 -6.890625 L 8.578125 -5.1875 L 5.890625 -5.1875 Z M 5.890625 0 "/></g></g></g><g fill="#ff00ff" fill-opacity="1"><g transform="translate(69.786526, 18.457031)"><g/></g></g><g fill="#00ffff" fill-opacity="1"><g transform="translate(69.417387, 18.457031)"><g/></g></g><g fill="#000000" fill-opacity="1"><g transform="translate(69.601956, 18.457031)"><g/></g></g><g fill="#ff00ff" fill-opacity="1"><g transform="translate(72.232083, 18.457031)"><g><path d="M 4.5625 0.15625 C 3.625 0.15625 2.867188 0.0546875 2.296875 -0.140625 C 1.734375 -0.347656 1.300781 -0.625 1 -0.96875 C 0.695312 -1.320312 0.5 -1.726562 0.40625 -2.1875 L 3.46875 -2.1875 C 3.695312 -1.863281 4.0625 -1.703125 4.5625 -1.703125 C 5.050781 -1.703125 5.410156 -1.863281 5.640625 -2.1875 C 5.660156 -2.21875 5.671875 -2.25 5.671875 -2.28125 C 5.671875 -2.363281 5.554688 -2.425781 5.328125 -2.46875 C 5.097656 -2.507812 4.753906 -2.546875 4.296875 -2.578125 C 3.722656 -2.597656 3.125 -2.65625 2.5 -2.75 C 1.09375 -2.96875 0.390625 -3.535156 0.390625 -4.453125 C 0.390625 -4.523438 0.394531 -4.609375 0.40625 -4.703125 C 0.5 -5.160156 0.695312 -5.5625 1 -5.90625 C 1.300781 -6.257812 1.734375 -6.535156 2.296875 -6.734375 C 2.867188 -6.929688 3.625 -7.03125 4.5625 -7.03125 C 5.488281 -7.03125 6.238281 -6.929688 6.8125 -6.734375 C 7.382812 -6.535156 7.816406 -6.257812 8.109375 -5.90625 C 8.410156 -5.5625 8.613281 -5.160156 8.71875 -4.703125 L 5.640625 -4.703125 C 5.410156 -5.023438 5.050781 -5.1875 4.5625 -5.1875 C 4.0625 -5.1875 3.695312 -5.023438 3.46875 -4.703125 C 3.457031 -4.671875 3.453125 -4.644531 3.453125 -4.625 C 3.453125 -4.550781 3.5625 -4.492188 3.78125 -4.453125 C 4 -4.410156 4.320312 -4.378906 4.75 -4.359375 C 5.175781 -4.335938 5.628906 -4.296875 6.109375 -4.234375 C 6.597656 -4.171875 7.050781 -4.066406 7.46875 -3.921875 C 7.894531 -3.785156 8.222656 -3.578125 8.453125 -3.296875 C 8.640625 -3.085938 8.734375 -2.816406 8.734375 -2.484375 C 8.734375 -2.390625 8.726562 -2.289062 8.71875 -2.1875 C 8.613281 -1.726562 8.410156 -1.320312 8.109375 -0.96875 C 7.816406 -0.625 7.382812 -0.347656 6.8125 -0.140625 C 6.238281 0.0546875 5.488281 0.15625 4.5625 0.15625 Z M 4.5625 0.15625 "/></g></g></g><g fill="#ff00ff" fill-opacity="1"><g transform="translate(81.351291, 18.457031)"><g><path d="M 5.21875 0.15625 C 3.507812 0.15625 2.253906 -0.195312 1.453125 -0.90625 C 0.742188 -1.53125 0.390625 -2.378906 0.390625 -3.453125 C 0.390625 -4.515625 0.742188 -5.359375 1.453125 -5.984375 C 2.253906 -6.679688 3.507812 -7.03125 5.21875 -7.03125 C 6.914062 -7.03125 8.171875 -6.679688 8.984375 -5.984375 C 9.691406 -5.359375 10.046875 -4.515625 10.046875 -3.453125 C 10.046875 -2.378906 9.691406 -1.53125 8.984375 -0.90625 C 8.171875 -0.195312 6.914062 0.15625 5.21875 0.15625 Z M 5.21875 -1.703125 C 5.914062 -1.703125 6.425781 -1.898438 6.75 -2.296875 C 7.007812 -2.617188 7.140625 -3.003906 7.140625 -3.453125 C 7.140625 -3.890625 7.007812 -4.265625 6.75 -4.578125 C 6.425781 -4.984375 5.914062 -5.1875 5.21875 -5.1875 C 4.519531 -5.1875 4.003906 -4.984375 3.671875 -4.578125 C 3.410156 -4.265625 3.28125 -3.890625 3.28125 -3.453125 C 3.28125 -3.003906 3.410156 -2.617188 3.671875 -2.296875 C 4.003906 -1.898438 4.519531 -1.703125 5.21875 -1.703125 Z M 5.21875 -1.703125 "/></g></g></g><g fill="#ff00ff" fill-opacity="1"><g transform="translate(91.777362, 18.457031)"><g><path d="M 8.8125 0 L 0.765625 0 L 0.765625 -6.890625 L 3.65625 -6.890625 L 3.65625 -1.703125 L 8.8125 -1.703125 Z M 8.8125 0 "/></g></g></g><g fill="#ff00ff" fill-opacity="1"><g transform="translate(100.786069, 18.457031)"><g><path d="M 9.078125 0 L 0.765625 0 L 0.765625 -6.890625 L 8.6875 -6.890625 L 8.6875 -5.1875 L 3.65625 -5.1875 L 3.65625 -4.109375 L 7.921875 -4.109375 L 7.921875 -2.78125 L 3.65625 -2.78125 L 3.65625 -1.703125 L 9.078125 -1.703125 Z M 9.078125 0 "/></g></g></g><g fill="#ff00ff" fill-opacity="1"><g transform="translate(110.241602, 18.457031)"><g><path d="M 10.1875 0 L 7.296875 0 L 7.296875 -2.78125 L 3.65625 -2.78125 L 3.65625 0 L 0.765625 0 L 0.765625 -6.890625 L 3.65625 -6.890625 L 3.65625 -4.109375 L 7.296875 -4.109375 L 7.296875 -6.890625 L 10.1875 -6.890625 Z M 10.1875 0 "/></g></g></g><g fill="#00ffff" fill-opacity="1"><g transform="translate(71.862943, 18.457031)"><g><path d="M 4.5625 0.15625 C 3.625 0.15625 2.867188 0.0546875 2.296875 -0.140625 C 1.734375 -0.347656 1.300781 -0.625 1 -0.96875 C 0.695312 -1.320312 0.5 -1.726562 0.40625 -2.1875 L 3.46875 -2.1875 C 3.695312 -1.863281 4.0625 -1.703125 4.5625 -1.703125 C 5.050781 -1.703125 5.410156 -1.863281 5.640625 -2.1875 C 5.660156 -2.21875 5.671875 -2.25 5.671875 -2.28125 C 5.671875 -2.363281 5.554688 -2.425781 5.328125 -2.46875 C 5.097656 -2.507812 4.753906 -2.546875 4.296875 -2.578125 C 3.722656 -2.597656 3.125 -2.65625 2.5 -2.75 C 1.09375 -2.96875 0.390625 -3.535156 0.390625 -4.453125 C 0.390625 -4.523438 0.394531 -4.609375 0.40625 -4.703125 C 0.5 -5.160156 0.695312 -5.5625 1 -5.90625 C 1.300781 -6.257812 1.734375 -6.535156 2.296875 -6.734375 C 2.867188 -6.929688 3.625 -7.03125 4.5625 -7.03125 C 5.488281 -7.03125 6.238281 -6.929688 6.8125 -6.734375 C 7.382812 -6.535156 7.816406 -6.257812 8.109375 -5.90625 C 8.410156 -5.5625 8.613281 -5.160156 8.71875 -4.703125 L 5.640625 -4.703125 C 5.410156 -5.023438 5.050781 -5.1875 4.5625 -5.1875 C 4.0625 -5.1875 3.695312 -5.023438 3.46875 -4.703125 C 3.457031 -4.671875 3.453125 -4.644531 3.453125 -4.625 C 3.453125 -4.550781 3.5625 -4.492188 3.78125 -4.453125 C 4 -4.410156 4.320312 -4.378906 4.75 -4.359375 C 5.175781 -4.335938 5.628906 -4.296875 6.109375 -4.234375 C 6.597656 -4.171875 7.050781 -4.066406 7.46875 -3.921875 C 7.894531 -3.785156 8.222656 -3.578125 8.453125 -3.296875 C 8.640625 -3.085938 8.734375 -2.816406 8.734375 -2.484375 C 8.734375 -2.390625 8.726562 -2.289062 8.71875 -2.1875 C 8.613281 -1.726562 8.410156 -1.320312 8.109375 -0.96875 C 7.816406 -0.625 7.382812 -0.347656 6.8125 -0.140625 C 6.238281 0.0546875 5.488281 0.15625 4.5625 0.15625 Z M 4.5625 0.15625 "/></g></g></g><g fill="#00ffff" fill-opacity="1"><g transform="translate(80.982151, 18.457031)"><g><path d="M 5.21875 0.15625 C 3.507812 0.15625 2.253906 -0.195312 1.453125 -0.90625 C 0.742188 -1.53125 0.390625 -2.378906 0.390625 -3.453125 C 0.390625 -4.515625 0.742188 -5.359375 1.453125 -5.984375 C 2.253906 -6.679688 3.507812 -7.03125 5.21875 -7.03125 C 6.914062 -7.03125 8.171875 -6.679688 8.984375 -5.984375 C 9.691406 -5.359375 10.046875 -4.515625 10.046875 -3.453125 C 10.046875 -2.378906 9.691406 -1.53125 8.984375 -0.90625 C 8.171875 -0.195312 6.914062 0.15625 5.21875 0.15625 Z M 5.21875 -1.703125 C 5.914062 -1.703125 6.425781 -1.898438 6.75 -2.296875 C 7.007812 -2.617188 7.140625 -3.003906 7.140625 -3.453125 C 7.140625 -3.890625 7.007812 -4.265625 6.75 -4.578125 C 6.425781 -4.984375 5.914062 -5.1875 5.21875 -5.1875 C 4.519531 -5.1875 4.003906 -4.984375 3.671875 -4.578125 C 3.410156 -4.265625 3.28125 -3.890625 3.28125 -3.453125 C 3.28125 -3.003906 3.410156 -2.617188 3.671875 -2.296875 C 4.003906 -1.898438 4.519531 -1.703125 5.21875 -1.703125 Z M 5.21875 -1.703125 "/></g></g></g><g fill="#00ffff" fill-opacity="1"><g transform="translate(91.408222, 18.457031)"><g><path d="M 8.8125 0 L 0.765625 0 L 0.765625 -6.890625 L 3.65625 -6.890625 L 3.65625 -1.703125 L 8.8125 -1.703125 Z M 8.8125 0 "/></g></g></g><g fill="#00ffff" fill-opacity="1"><g transform="translate(100.416929, 18.457031)"><g><path d="M 9.078125 0 L 0.765625 0 L 0.765625 -6.890625 L 8.6875 -6.890625 L 8.6875 -5.1875 L 3.65625 -5.1875 L 3.65625 -4.109375 L 7.921875 -4.109375 L 7.921875 -2.78125 L 3.65625 -2.78125 L 3.65625 -1.703125 L 9.078125 -1.703125 Z M 9.078125 0 "/></g></g></g><g fill="#00ffff" fill-opacity="1"><g transform="translate(109.872462, 18.457031)"><g><path d="M 10.1875 0 L 7.296875 0 L 7.296875 -2.78125 L 3.65625 -2.78125 L 3.65625 0 L 0.765625 0 L 0.765625 -6.890625 L 3.65625 -6.890625 L 3.65625 -4.109375 L 7.296875 -4.109375 L 7.296875 -6.890625 L 10.1875 -6.890625 Z M 10.1875 0 "/></g></g></g><g fill="#ffde59" fill-opacity="1"><g transform="translate(72.047513, 18.457031)"><g><path d="M 4.5625 0.15625 C 3.625 0.15625 2.867188 0.0546875 2.296875 -0.140625 C 1.734375 -0.347656 1.300781 -0.625 1 -0.96875 C 0.695312 -1.320312 0.5 -1.726562 0.40625 -2.1875 L 3.46875 -2.1875 C 3.695312 -1.863281 4.0625 -1.703125 4.5625 -1.703125 C 5.050781 -1.703125 5.410156 -1.863281 5.640625 -2.1875 C 5.660156 -2.21875 5.671875 -2.25 5.671875 -2.28125 C 5.671875 -2.363281 5.554688 -2.425781 5.328125 -2.46875 C 5.097656 -2.507812 4.753906 -2.546875 4.296875 -2.578125 C 3.722656 -2.597656 3.125 -2.65625 2.5 -2.75 C 1.09375 -2.96875 0.390625 -3.535156 0.390625 -4.453125 C 0.390625 -4.523438 0.394531 -4.609375 0.40625 -4.703125 C 0.5 -5.160156 0.695312 -5.5625 1 -5.90625 C 1.300781 -6.257812 1.734375 -6.535156 2.296875 -6.734375 C 2.867188 -6.929688 3.625 -7.03125 4.5625 -7.03125 C 5.488281 -7.03125 6.238281 -6.929688 6.8125 -6.734375 C 7.382812 -6.535156 7.816406 -6.257812 8.109375 -5.90625 C 8.410156 -5.5625 8.613281 -5.160156 8.71875 -4.703125 L 5.640625 -4.703125 C 5.410156 -5.023438 5.050781 -5.1875 4.5625 -5.1875 C 4.0625 -5.1875 3.695312 -5.023438 3.46875 -4.703125 C 3.457031 -4.671875 3.453125 -4.644531 3.453125 -4.625 C 3.453125 -4.550781 3.5625 -4.492188 3.78125 -4.453125 C 4 -4.410156 4.320312 -4.378906 4.75 -4.359375 C 5.175781 -4.335938 5.628906 -4.296875 6.109375 -4.234375 C 6.597656 -4.171875 7.050781 -4.066406 7.46875 -3.921875 C 7.894531 -3.785156 8.222656 -3.578125 8.453125 -3.296875 C 8.640625 -3.085938 8.734375 -2.816406 8.734375 -2.484375 C 8.734375 -2.390625 8.726562 -2.289062 8.71875 -2.1875 C 8.613281 -1.726562 8.410156 -1.320312 8.109375 -0.96875 C 7.816406 -0.625 7.382812 -0.347656 6.8125 -0.140625 C 6.238281 0.0546875 5.488281 0.15625 4.5625 0.15625 Z M 4.5625 0.15625 "/></g></g></g><g fill="#ffde59" fill-opacity="1"><g transform="translate(81.166721, 18.457031)"><g><path d="M 5.21875 0.15625 C 3.507812 0.15625 2.253906 -0.195312 1.453125 -0.90625 C 0.742188 -1.53125 0.390625 -2.378906 0.390625 -3.453125 C 0.390625 -4.515625 0.742188 -5.359375 1.453125 -5.984375 C 2.253906 -6.679688 3.507812 -7.03125 5.21875 -7.03125 C 6.914062 -7.03125 8.171875 -6.679688 8.984375 -5.984375 C 9.691406 -5.359375 10.046875 -4.515625 10.046875 -3.453125 C 10.046875 -2.378906 9.691406 -1.53125 8.984375 -0.90625 C 8.171875 -0.195312 6.914062 0.15625 5.21875 0.15625 Z M 5.21875 -1.703125 C 5.914062 -1.703125 6.425781 -1.898438 6.75 -2.296875 C 7.007812 -2.617188 7.140625 -3.003906 7.140625 -3.453125 C 7.140625 -3.890625 7.007812 -4.265625 6.75 -4.578125 C 6.425781 -4.984375 5.914062 -5.1875 5.21875 -5.1875 C 4.519531 -5.1875 4.003906 -4.984375 3.671875 -4.578125 C 3.410156 -4.265625 3.28125 -3.890625 3.28125 -3.453125 C 3.28125 -3.003906 3.410156 -2.617188 3.671875 -2.296875 C 4.003906 -1.898438 4.519531 -1.703125 5.21875 -1.703125 Z M 5.21875 -1.703125 "/></g></g></g><g fill="#ffde59" fill-opacity="1"><g transform="translate(91.592792, 18.457031)"><g><path d="M 8.8125 0 L 0.765625 0 L 0.765625 -6.890625 L 3.65625 -6.890625 L 3.65625 -1.703125 L 8.8125 -1.703125 Z M 8.8125 0 "/></g></g></g><g fill="#ffde59" fill-opacity="1"><g transform="translate(100.601499, 18.457031)"><g><path d="M 9.078125 0 L 0.765625 0 L 0.765625 -6.890625 L 8.6875 -6.890625 L 8.6875 -5.1875 L 3.65625 -5.1875 L 3.65625 -4.109375 L 7.921875 -4.109375 L 7.921875 -2.78125 L 3.65625 -2.78125 L 3.65625 -1.703125 L 9.078125 -1.703125 Z M 9.078125 0 "/></g></g></g><g fill="#ffde59" fill-opacity="1"><g transform="translate(110.057032, 18.457031)"><g><path d="M 10.1875 0 L 7.296875 0 L 7.296875 -2.78125 L 3.65625 -2.78125 L 3.65625 0 L 0.765625 0 L 0.765625 -6.890625 L 3.65625 -6.890625 L 3.65625 -4.109375 L 7.296875 -4.109375 L 7.296875 -6.890625 L 10.1875 -6.890625 Z M 10.1875 0 "/></g></g></g></svg>